<svg xmlns="http://www.w3.org/2000/svg" width="900" height="420" viewBox="0 0 900 420">
<rect width="100%" height="100%" fill="white"/>
<text x="30" y="35" font-family="Arial" font-size="22" font-weight="700">Purchase Spend by Category</text>
<rect x="70.0" y="147.3" width="84.0" height="202.7" fill="#2f6f9f"/>
<text x="70.0" y="372" font-family="Arial" font-size="11" transform="rotate(35 70.0,372)">Food</text>
<text x="70.0" y="141.3" font-family="Arial" font-size="10">119,781</text>
<rect x="190.0" y="94.3" width="84.0" height="255.7" fill="#2f6f9f"/>
<text x="190.0" y="372" font-family="Arial" font-size="11" transform="rotate(35 190.0,372)">Guest Supplies</text>
<text x="190.0" y="88.3" font-family="Arial" font-size="10">151,042</text>
<rect x="310.0" y="143.0" width="84.0" height="207.0" fill="#2f6f9f"/>
<text x="310.0" y="372" font-family="Arial" font-size="11" transform="rotate(35 310.0,372)">Housekeeping</text>
<text x="310.0" y="137.0" font-family="Arial" font-size="10">122,272</text>
<rect x="430.0" y="70.0" width="84.0" height="280.0" fill="#2f6f9f"/>
<text x="430.0" y="372" font-family="Arial" font-size="11" transform="rotate(35 430.0,372)">Maintenance</text>
<text x="430.0" y="64.0" font-family="Arial" font-size="10">165,427</text>
<rect x="550.0" y="118.7" width="84.0" height="231.3" fill="#2f6f9f"/>
<text x="550.0" y="372" font-family="Arial" font-size="11" transform="rotate(35 550.0,372)">Utilities</text>
<text x="550.0" y="112.7" font-family="Arial" font-size="10">136,657</text>
</svg>