<svg xmlns="http://www.w3.org/2000/svg" width="900" height="420" viewBox="0 0 900 420">
<rect width="100%" height="100%" fill="white"/>
<text x="30" y="35" font-family="Arial" font-size="22" font-weight="700">Actual Cost by Cost Center</text>
<rect x="70.0" y="70.0" width="84.0" height="280.0" fill="#2f6f9f"/>
<text x="70.0" y="372" font-family="Arial" font-size="11" transform="rotate(35 70.0,372)">Rooms Operations</text>
<text x="70.0" y="64.0" font-family="Arial" font-size="10">469,592</text>
<rect x="190.0" y="174.1" width="84.0" height="175.9" fill="#2f6f9f"/>
<text x="190.0" y="372" font-family="Arial" font-size="11" transform="rotate(35 190.0,372)">Food & Beverage</text>
<text x="190.0" y="168.1" font-family="Arial" font-size="10">295,000</text>
<rect x="310.0" y="245.9" width="84.0" height="104.1" fill="#2f6f9f"/>
<text x="310.0" y="372" font-family="Arial" font-size="11" transform="rotate(35 310.0,372)">Sales & Marketing</text>
<text x="310.0" y="239.9" font-family="Arial" font-size="10">174,592</text>
<rect x="430.0" y="212.7" width="84.0" height="137.3" fill="#2f6f9f"/>
<text x="430.0" y="372" font-family="Arial" font-size="11" transform="rotate(35 430.0,372)">Facilities</text>
<text x="430.0" y="206.7" font-family="Arial" font-size="10">230,255</text>
<rect x="550.0" y="263.8" width="84.0" height="86.2" fill="#2f6f9f"/>
<text x="550.0" y="372" font-family="Arial" font-size="11" transform="rotate(35 550.0,372)">Administration</text>
<text x="550.0" y="257.8" font-family="Arial" font-size="10">144,490</text>
</svg>