<svg xmlns="http://www.w3.org/2000/svg" width="960" height="430" viewBox="0 0 960 430">
<rect width="100%" height="100%" fill="white"/>
<text x="28" y="36" font-family="Arial" font-size="22" font-weight="700">Actual Cost by Cost Center</text>
<rect x="70.0" y="189.9" width="77.1" height="160.1" fill="#7c3aed"/>
<text x="70.0" y="374" font-family="Arial" font-size="10" transform="rotate(35 70.0,374)">Food & Beverage</text>
<text x="70.0" y="183.9" font-family="Arial" font-size="10">1,078,482</text>
<rect x="183.3" y="60.0" width="77.1" height="290.0" fill="#7c3aed"/>
<text x="183.3" y="374" font-family="Arial" font-size="10" transform="rotate(35 183.3,374)">Rooms</text>
<text x="183.3" y="54.0" font-family="Arial" font-size="10">1,953,070</text>
<rect x="296.7" y="272.0" width="77.1" height="78.0" fill="#7c3aed"/>
<text x="296.7" y="374" font-family="Arial" font-size="10" transform="rotate(35 296.7,374)">Maintenance</text>
<text x="296.7" y="266.0" font-family="Arial" font-size="10">525,496</text>
<rect x="410.0" y="240.2" width="77.1" height="109.8" fill="#7c3aed"/>
<text x="410.0" y="374" font-family="Arial" font-size="10" transform="rotate(35 410.0,374)">Housekeeping</text>
<text x="410.0" y="234.2" font-family="Arial" font-size="10">739,727</text>
<rect x="523.3" y="262.9" width="77.1" height="87.1" fill="#7c3aed"/>
<text x="523.3" y="374" font-family="Arial" font-size="10" transform="rotate(35 523.3,374)">Sales & Marketing</text>
<text x="523.3" y="256.9" font-family="Arial" font-size="10">586,509</text>
<rect x="636.7" y="252.6" width="77.1" height="97.4" fill="#7c3aed"/>
<text x="636.7" y="374" font-family="Arial" font-size="10" transform="rotate(35 636.7,374)">Administration</text>
<text x="636.7" y="246.6" font-family="Arial" font-size="10">656,084</text>
</svg>