<svg xmlns="http://www.w3.org/2000/svg" width="960" height="430" viewBox="0 0 960 430">
<rect width="100%" height="100%" fill="white"/>
<text x="28" y="36" font-family="Arial" font-size="22" font-weight="700">Revenue Baseline Holdout and Future Forecast</text>
<rect x="70.0" y="85.2" width="77.1" height="264.8" fill="#ea580c"/>
<text x="70.0" y="374" font-family="Arial" font-size="10" transform="rotate(35 70.0,374)">2025-10</text>
<text x="70.0" y="79.2" font-family="Arial" font-size="10">589,942</text>
<rect x="183.3" y="80.1" width="77.1" height="269.9" fill="#ea580c"/>
<text x="183.3" y="374" font-family="Arial" font-size="10" transform="rotate(35 183.3,374)">2025-11</text>
<text x="183.3" y="74.1" font-family="Arial" font-size="10">601,150</text>
<rect x="296.7" y="75.1" width="77.1" height="274.9" fill="#ea580c"/>
<text x="296.7" y="374" font-family="Arial" font-size="10" transform="rotate(35 296.7,374)">2025-12</text>
<text x="296.7" y="69.1" font-family="Arial" font-size="10">612,358</text>
<rect x="410.0" y="70.1" width="77.1" height="279.9" fill="#ea580c"/>
<text x="410.0" y="374" font-family="Arial" font-size="10" transform="rotate(35 410.0,374)">2026-01</text>
<text x="410.0" y="64.1" font-family="Arial" font-size="10">623,566</text>
<rect x="523.3" y="65.0" width="77.1" height="285.0" fill="#ea580c"/>
<text x="523.3" y="374" font-family="Arial" font-size="10" transform="rotate(35 523.3,374)">2026-02</text>
<text x="523.3" y="59.0" font-family="Arial" font-size="10">634,774</text>
<rect x="636.7" y="60.0" width="77.1" height="290.0" fill="#ea580c"/>
<text x="636.7" y="374" font-family="Arial" font-size="10" transform="rotate(35 636.7,374)">2026-03</text>
<text x="636.7" y="54.0" font-family="Arial" font-size="10">645,982</text>
</svg>