<svg xmlns="http://www.w3.org/2000/svg" width="900" height="420" viewBox="0 0 900 420">
<rect width="100%" height="100%" fill="white"/>
<text x="30" y="35" font-family="Arial" font-size="22" font-weight="700">Revenue Forecast Baseline</text>
<rect x="70.0" y="70.0" width="35.0" height="280.0" fill="#2f6f9f"/>
<text x="70.0" y="372" font-family="Arial" font-size="11" transform="rotate(35 70.0,372)">2025-01</text>
<text x="70.0" y="64.0" font-family="Arial" font-size="10">443,326</text>
<rect x="120.0" y="81.9" width="35.0" height="268.1" fill="#2f6f9f"/>
<text x="120.0" y="372" font-family="Arial" font-size="11" transform="rotate(35 120.0,372)">2025-02</text>
<text x="120.0" y="75.9" font-family="Arial" font-size="10">424,500</text>
<rect x="170.0" y="93.8" width="35.0" height="256.2" fill="#2f6f9f"/>
<text x="170.0" y="372" font-family="Arial" font-size="11" transform="rotate(35 170.0,372)">2025-03</text>
<text x="170.0" y="87.8" font-family="Arial" font-size="10">405,673</text>
<rect x="220.0" y="105.7" width="35.0" height="244.3" fill="#2f6f9f"/>
<text x="220.0" y="372" font-family="Arial" font-size="11" transform="rotate(35 220.0,372)">2025-04</text>
<text x="220.0" y="99.7" font-family="Arial" font-size="10">386,846</text>
<rect x="270.0" y="117.6" width="35.0" height="232.4" fill="#2f6f9f"/>
<text x="270.0" y="372" font-family="Arial" font-size="11" transform="rotate(35 270.0,372)">2025-05</text>
<text x="270.0" y="111.6" font-family="Arial" font-size="10">368,019</text>
<rect x="320.0" y="129.5" width="35.0" height="220.5" fill="#2f6f9f"/>
<text x="320.0" y="372" font-family="Arial" font-size="11" transform="rotate(35 320.0,372)">2025-06</text>
<text x="320.0" y="123.5" font-family="Arial" font-size="10">349,193</text>
<rect x="370.0" y="141.3" width="35.0" height="208.7" fill="#2f6f9f"/>
<text x="370.0" y="372" font-family="Arial" font-size="11" transform="rotate(35 370.0,372)">2025-07</text>
<text x="370.0" y="135.3" font-family="Arial" font-size="10">330,366</text>
<rect x="420.0" y="153.2" width="35.0" height="196.8" fill="#2f6f9f"/>
<text x="420.0" y="372" font-family="Arial" font-size="11" transform="rotate(35 420.0,372)">2025-08</text>
<text x="420.0" y="147.2" font-family="Arial" font-size="10">311,539</text>
<rect x="470.0" y="165.1" width="35.0" height="184.9" fill="#2f6f9f"/>
<text x="470.0" y="372" font-family="Arial" font-size="11" transform="rotate(35 470.0,372)">2025-09</text>
<text x="470.0" y="159.1" font-family="Arial" font-size="10">292,712</text>
<rect x="520.0" y="177.0" width="35.0" height="173.0" fill="#2f6f9f"/>
<text x="520.0" y="372" font-family="Arial" font-size="11" transform="rotate(35 520.0,372)">2025-10</text>
<text x="520.0" y="171.0" font-family="Arial" font-size="10">273,886</text>
<rect x="570.0" y="188.9" width="35.0" height="161.1" fill="#2f6f9f"/>
<text x="570.0" y="372" font-family="Arial" font-size="11" transform="rotate(35 570.0,372)">2025-11</text>
<text x="570.0" y="182.9" font-family="Arial" font-size="10">255,059</text>
<rect x="620.0" y="200.8" width="35.0" height="149.2" fill="#2f6f9f"/>
<text x="620.0" y="372" font-family="Arial" font-size="11" transform="rotate(35 620.0,372)">2025-12</text>
<text x="620.0" y="194.8" font-family="Arial" font-size="10">236,232</text>
</svg>