<svg xmlns="http://www.w3.org/2000/svg" width="960" height="430" viewBox="0 0 960 430">
<rect width="100%" height="100%" fill="white"/>
<text x="28" y="36" font-family="Arial" font-size="22" font-weight="700">Recommended Revenue Forecast Baseline</text>
<rect x="70.0" y="182.1" width="19.3" height="167.9" fill="#ea580c"/>
<text x="70.0" y="374" font-family="Arial" font-size="10" transform="rotate(35 70.0,374)">2024-01</text>
<text x="70.0" y="176.1" font-family="Arial" font-size="10">354,572</text>
<rect x="98.3" y="176.8" width="19.3" height="173.2" fill="#ea580c"/>
<text x="98.3" y="374" font-family="Arial" font-size="10" transform="rotate(35 98.3,374)">2024-02</text>
<text x="98.3" y="170.8" font-family="Arial" font-size="10">365,780</text>
<rect x="126.7" y="171.5" width="19.3" height="178.5" fill="#ea580c"/>
<text x="126.7" y="374" font-family="Arial" font-size="10" transform="rotate(35 126.7,374)">2024-03</text>
<text x="126.7" y="165.5" font-family="Arial" font-size="10">376,988</text>
<rect x="155.0" y="166.2" width="19.3" height="183.8" fill="#ea580c"/>
<text x="155.0" y="374" font-family="Arial" font-size="10" transform="rotate(35 155.0,374)">2024-04</text>
<text x="155.0" y="160.2" font-family="Arial" font-size="10">388,196</text>
<rect x="183.3" y="160.9" width="19.3" height="189.1" fill="#ea580c"/>
<text x="183.3" y="374" font-family="Arial" font-size="10" transform="rotate(35 183.3,374)">2024-05</text>
<text x="183.3" y="154.9" font-family="Arial" font-size="10">399,404</text>
<rect x="211.7" y="155.5" width="19.3" height="194.5" fill="#ea580c"/>
<text x="211.7" y="374" font-family="Arial" font-size="10" transform="rotate(35 211.7,374)">2024-06</text>
<text x="211.7" y="149.5" font-family="Arial" font-size="10">410,612</text>
<rect x="240.0" y="150.2" width="19.3" height="199.8" fill="#ea580c"/>
<text x="240.0" y="374" font-family="Arial" font-size="10" transform="rotate(35 240.0,374)">2024-07</text>
<text x="240.0" y="144.2" font-family="Arial" font-size="10">421,820</text>
<rect x="268.3" y="144.9" width="19.3" height="205.1" fill="#ea580c"/>
<text x="268.3" y="374" font-family="Arial" font-size="10" transform="rotate(35 268.3,374)">2024-08</text>
<text x="268.3" y="138.9" font-family="Arial" font-size="10">433,029</text>
<rect x="296.7" y="139.6" width="19.3" height="210.4" fill="#ea580c"/>
<text x="296.7" y="374" font-family="Arial" font-size="10" transform="rotate(35 296.7,374)">2024-09</text>
<text x="296.7" y="133.6" font-family="Arial" font-size="10">444,237</text>
<rect x="325.0" y="134.3" width="19.3" height="215.7" fill="#ea580c"/>
<text x="325.0" y="374" font-family="Arial" font-size="10" transform="rotate(35 325.0,374)">2024-10</text>
<text x="325.0" y="128.3" font-family="Arial" font-size="10">455,445</text>
<rect x="353.3" y="129.0" width="19.3" height="221.0" fill="#ea580c"/>
<text x="353.3" y="374" font-family="Arial" font-size="10" transform="rotate(35 353.3,374)">2024-11</text>
<text x="353.3" y="123.0" font-family="Arial" font-size="10">466,653</text>
<rect x="381.7" y="123.7" width="19.3" height="226.3" fill="#ea580c"/>
<text x="381.7" y="374" font-family="Arial" font-size="10" transform="rotate(35 381.7,374)">2024-12</text>
<text x="381.7" y="117.7" font-family="Arial" font-size="10">477,861</text>
<rect x="410.0" y="118.4" width="19.3" height="231.6" fill="#ea580c"/>
<text x="410.0" y="374" font-family="Arial" font-size="10" transform="rotate(35 410.0,374)">2025-01</text>
<text x="410.0" y="112.4" font-family="Arial" font-size="10">489,069</text>
<rect x="438.3" y="113.1" width="19.3" height="236.9" fill="#ea580c"/>
<text x="438.3" y="374" font-family="Arial" font-size="10" transform="rotate(35 438.3,374)">2025-02</text>
<text x="438.3" y="107.1" font-family="Arial" font-size="10">500,277</text>
<rect x="466.7" y="107.8" width="19.3" height="242.2" fill="#ea580c"/>
<text x="466.7" y="374" font-family="Arial" font-size="10" transform="rotate(35 466.7,374)">2025-03</text>
<text x="466.7" y="101.8" font-family="Arial" font-size="10">511,485</text>
<rect x="495.0" y="102.5" width="19.3" height="247.5" fill="#ea580c"/>
<text x="495.0" y="374" font-family="Arial" font-size="10" transform="rotate(35 495.0,374)">2025-04</text>
<text x="495.0" y="96.5" font-family="Arial" font-size="10">522,693</text>
<rect x="523.3" y="97.2" width="19.3" height="252.8" fill="#ea580c"/>
<text x="523.3" y="374" font-family="Arial" font-size="10" transform="rotate(35 523.3,374)">2025-05</text>
<text x="523.3" y="91.2" font-family="Arial" font-size="10">533,901</text>
<rect x="551.7" y="91.8" width="19.3" height="258.2" fill="#ea580c"/>
<text x="551.7" y="374" font-family="Arial" font-size="10" transform="rotate(35 551.7,374)">2025-06</text>
<text x="551.7" y="85.8" font-family="Arial" font-size="10">545,109</text>
<rect x="580.0" y="86.5" width="19.3" height="263.5" fill="#ea580c"/>
<text x="580.0" y="374" font-family="Arial" font-size="10" transform="rotate(35 580.0,374)">2025-07</text>
<text x="580.0" y="80.5" font-family="Arial" font-size="10">556,318</text>
<rect x="608.3" y="81.2" width="19.3" height="268.8" fill="#ea580c"/>
<text x="608.3" y="374" font-family="Arial" font-size="10" transform="rotate(35 608.3,374)">2025-08</text>
<text x="608.3" y="75.2" font-family="Arial" font-size="10">567,526</text>
<rect x="636.7" y="75.9" width="19.3" height="274.1" fill="#ea580c"/>
<text x="636.7" y="374" font-family="Arial" font-size="10" transform="rotate(35 636.7,374)">2025-09</text>
<text x="636.7" y="69.9" font-family="Arial" font-size="10">578,734</text>
<rect x="665.0" y="70.6" width="19.3" height="279.4" fill="#ea580c"/>
<text x="665.0" y="374" font-family="Arial" font-size="10" transform="rotate(35 665.0,374)">2025-10</text>
<text x="665.0" y="64.6" font-family="Arial" font-size="10">589,942</text>
<rect x="693.3" y="65.3" width="19.3" height="284.7" fill="#ea580c"/>
<text x="693.3" y="374" font-family="Arial" font-size="10" transform="rotate(35 693.3,374)">2025-11</text>
<text x="693.3" y="59.3" font-family="Arial" font-size="10">601,150</text>
<rect x="721.7" y="60.0" width="19.3" height="290.0" fill="#ea580c"/>
<text x="721.7" y="374" font-family="Arial" font-size="10" transform="rotate(35 721.7,374)">2025-12</text>
<text x="721.7" y="54.0" font-family="Arial" font-size="10">612,358</text>
</svg>