<svg xmlns="http://www.w3.org/2000/svg" width="960" height="430" viewBox="0 0 960 430">
<rect width="100%" height="100%" fill="white"/>
<text x="28" y="36" font-family="Arial" font-size="22" font-weight="700">Monthly Net Revenue</text>
<rect x="70.0" y="207.4" width="19.3" height="142.6" fill="#2563eb"/>
<text x="70.0" y="374" font-family="Arial" font-size="10" transform="rotate(35 70.0,374)">2024-01</text>
<text x="70.0" y="201.4" font-family="Arial" font-size="10">354,572</text>
<rect x="98.3" y="199.6" width="19.3" height="150.4" fill="#2563eb"/>
<text x="98.3" y="374" font-family="Arial" font-size="10" transform="rotate(35 98.3,374)">2024-02</text>
<text x="98.3" y="193.6" font-family="Arial" font-size="10">373,811</text>
<rect x="126.7" y="178.4" width="19.3" height="171.6" fill="#2563eb"/>
<text x="126.7" y="374" font-family="Arial" font-size="10" transform="rotate(35 126.7,374)">2024-03</text>
<text x="126.7" y="172.4" font-family="Arial" font-size="10">426,630</text>
<rect x="155.0" y="174.8" width="19.3" height="175.2" fill="#2563eb"/>
<text x="155.0" y="374" font-family="Arial" font-size="10" transform="rotate(35 155.0,374)">2024-04</text>
<text x="155.0" y="168.8" font-family="Arial" font-size="10">435,420</text>
<rect x="183.3" y="182.5" width="19.3" height="167.5" fill="#2563eb"/>
<text x="183.3" y="374" font-family="Arial" font-size="10" transform="rotate(35 183.3,374)">2024-05</text>
<text x="183.3" y="176.5" font-family="Arial" font-size="10">416,455</text>
<rect x="211.7" y="113.2" width="19.3" height="236.8" fill="#2563eb"/>
<text x="211.7" y="374" font-family="Arial" font-size="10" transform="rotate(35 211.7,374)">2024-06</text>
<text x="211.7" y="107.2" font-family="Arial" font-size="10">588,586</text>
<rect x="240.0" y="83.5" width="19.3" height="266.5" fill="#2563eb"/>
<text x="240.0" y="374" font-family="Arial" font-size="10" transform="rotate(35 240.0,374)">2024-07</text>
<text x="240.0" y="77.5" font-family="Arial" font-size="10">662,444</text>
<rect x="268.3" y="81.6" width="19.3" height="268.4" fill="#2563eb"/>
<text x="268.3" y="374" font-family="Arial" font-size="10" transform="rotate(35 268.3,374)">2024-08</text>
<text x="268.3" y="75.6" font-family="Arial" font-size="10">667,062</text>
<rect x="296.7" y="150.2" width="19.3" height="199.8" fill="#2563eb"/>
<text x="296.7" y="374" font-family="Arial" font-size="10" transform="rotate(35 296.7,374)">2024-09</text>
<text x="296.7" y="144.2" font-family="Arial" font-size="10">496,716</text>
<rect x="325.0" y="139.5" width="19.3" height="210.5" fill="#2563eb"/>
<text x="325.0" y="374" font-family="Arial" font-size="10" transform="rotate(35 325.0,374)">2024-10</text>
<text x="325.0" y="133.5" font-family="Arial" font-size="10">523,197</text>
<rect x="353.3" y="155.6" width="19.3" height="194.4" fill="#2563eb"/>
<text x="353.3" y="374" font-family="Arial" font-size="10" transform="rotate(35 353.3,374)">2024-11</text>
<text x="353.3" y="149.6" font-family="Arial" font-size="10">483,176</text>
<rect x="381.7" y="83.8" width="19.3" height="266.2" fill="#2563eb"/>
<text x="381.7" y="374" font-family="Arial" font-size="10" transform="rotate(35 381.7,374)">2024-12</text>
<text x="381.7" y="77.8" font-family="Arial" font-size="10">661,787</text>
<rect x="410.0" y="188.5" width="19.3" height="161.5" fill="#2563eb"/>
<text x="410.0" y="374" font-family="Arial" font-size="10" transform="rotate(35 410.0,374)">2025-01</text>
<text x="410.0" y="182.5" font-family="Arial" font-size="10">401,514</text>
<rect x="438.3" y="184.7" width="19.3" height="165.3" fill="#2563eb"/>
<text x="438.3" y="374" font-family="Arial" font-size="10" transform="rotate(35 438.3,374)">2025-02</text>
<text x="438.3" y="178.7" font-family="Arial" font-size="10">410,774</text>
<rect x="466.7" y="149.9" width="19.3" height="200.1" fill="#2563eb"/>
<text x="466.7" y="374" font-family="Arial" font-size="10" transform="rotate(35 466.7,374)">2025-03</text>
<text x="466.7" y="143.9" font-family="Arial" font-size="10">497,503</text>
<rect x="495.0" y="154.9" width="19.3" height="195.1" fill="#2563eb"/>
<text x="495.0" y="374" font-family="Arial" font-size="10" transform="rotate(35 495.0,374)">2025-04</text>
<text x="495.0" y="148.9" font-family="Arial" font-size="10">485,032</text>
<rect x="523.3" y="146.7" width="19.3" height="203.3" fill="#2563eb"/>
<text x="523.3" y="374" font-family="Arial" font-size="10" transform="rotate(35 523.3,374)">2025-05</text>
<text x="523.3" y="140.7" font-family="Arial" font-size="10">505,382</text>
<rect x="551.7" y="81.3" width="19.3" height="268.7" fill="#2563eb"/>
<text x="551.7" y="374" font-family="Arial" font-size="10" transform="rotate(35 551.7,374)">2025-06</text>
<text x="551.7" y="75.3" font-family="Arial" font-size="10">667,979</text>
<rect x="580.0" y="60.0" width="19.3" height="290.0" fill="#2563eb"/>
<text x="580.0" y="374" font-family="Arial" font-size="10" transform="rotate(35 580.0,374)">2025-07</text>
<text x="580.0" y="54.0" font-family="Arial" font-size="10">720,850</text>
<rect x="608.3" y="73.2" width="19.3" height="276.8" fill="#2563eb"/>
<text x="608.3" y="374" font-family="Arial" font-size="10" transform="rotate(35 608.3,374)">2025-08</text>
<text x="608.3" y="67.2" font-family="Arial" font-size="10">687,983</text>
<rect x="636.7" y="117.2" width="19.3" height="232.8" fill="#2563eb"/>
<text x="636.7" y="374" font-family="Arial" font-size="10" transform="rotate(35 636.7,374)">2025-09</text>
<text x="636.7" y="111.2" font-family="Arial" font-size="10">578,734</text>
<rect x="665.0" y="111.4" width="19.3" height="238.6" fill="#2563eb"/>
<text x="665.0" y="374" font-family="Arial" font-size="10" transform="rotate(35 665.0,374)">2025-10</text>
<text x="665.0" y="105.4" font-family="Arial" font-size="10">593,110</text>
<rect x="693.3" y="140.3" width="19.3" height="209.7" fill="#2563eb"/>
<text x="693.3" y="374" font-family="Arial" font-size="10" transform="rotate(35 693.3,374)">2025-11</text>
<text x="693.3" y="134.3" font-family="Arial" font-size="10">521,323</text>
<rect x="721.7" y="65.6" width="19.3" height="284.4" fill="#2563eb"/>
<text x="721.7" y="374" font-family="Arial" font-size="10" transform="rotate(35 721.7,374)">2025-12</text>
<text x="721.7" y="59.6" font-family="Arial" font-size="10">706,971</text>
</svg>