<svg xmlns="http://www.w3.org/2000/svg" width="900" height="420" viewBox="0 0 900 420">
<rect width="100%" height="100%" fill="white"/>
<text x="30" y="35" font-family="Arial" font-size="22" font-weight="700">Monthly Net Revenue</text>
<rect x="70.0" y="70.0" width="35.0" height="280.0" fill="#2f6f9f"/>
<text x="70.0" y="372" font-family="Arial" font-size="11" transform="rotate(35 70.0,372)">2025-01</text>
<text x="70.0" y="64.0" font-family="Arial" font-size="10">443,326</text>
<rect x="120.0" y="73.9" width="35.0" height="276.1" fill="#2f6f9f"/>
<text x="120.0" y="372" font-family="Arial" font-size="11" transform="rotate(35 120.0,372)">2025-02</text>
<text x="120.0" y="67.9" font-family="Arial" font-size="10">437,123</text>
<rect x="170.0" y="155.9" width="35.0" height="194.1" fill="#2f6f9f"/>
<text x="170.0" y="372" font-family="Arial" font-size="11" transform="rotate(35 170.0,372)">2025-03</text>
<text x="170.0" y="149.9" font-family="Arial" font-size="10">307,388</text>
<rect x="220.0" y="177.4" width="35.0" height="172.6" fill="#2f6f9f"/>
<text x="220.0" y="372" font-family="Arial" font-size="11" transform="rotate(35 220.0,372)">2025-04</text>
<text x="220.0" y="171.4" font-family="Arial" font-size="10">273,232</text>
<rect x="270.0" y="175.5" width="35.0" height="174.5" fill="#2f6f9f"/>
<text x="270.0" y="372" font-family="Arial" font-size="11" transform="rotate(35 270.0,372)">2025-05</text>
<text x="270.0" y="169.5" font-family="Arial" font-size="10">276,236</text>
<rect x="320.0" y="151.5" width="35.0" height="198.5" fill="#2f6f9f"/>
<text x="320.0" y="372" font-family="Arial" font-size="11" transform="rotate(35 320.0,372)">2025-06</text>
<text x="320.0" y="145.5" font-family="Arial" font-size="10">314,295</text>
<rect x="370.0" y="108.9" width="35.0" height="241.1" fill="#2f6f9f"/>
<text x="370.0" y="372" font-family="Arial" font-size="11" transform="rotate(35 370.0,372)">2025-07</text>
<text x="370.0" y="102.9" font-family="Arial" font-size="10">381,764</text>
<rect x="420.0" y="110.4" width="35.0" height="239.6" fill="#2f6f9f"/>
<text x="420.0" y="372" font-family="Arial" font-size="11" transform="rotate(35 420.0,372)">2025-08</text>
<text x="420.0" y="104.4" font-family="Arial" font-size="10">379,286</text>
<rect x="470.0" y="154.2" width="35.0" height="195.8" fill="#2f6f9f"/>
<text x="470.0" y="372" font-family="Arial" font-size="11" transform="rotate(35 470.0,372)">2025-09</text>
<text x="470.0" y="148.2" font-family="Arial" font-size="10">309,965</text>
<rect x="520.0" y="177.0" width="35.0" height="173.0" fill="#2f6f9f"/>
<text x="520.0" y="372" font-family="Arial" font-size="11" transform="rotate(35 520.0,372)">2025-10</text>
<text x="520.0" y="171.0" font-family="Arial" font-size="10">273,886</text>
<rect x="570.0" y="176.6" width="35.0" height="173.4" fill="#2f6f9f"/>
<text x="570.0" y="372" font-family="Arial" font-size="11" transform="rotate(35 570.0,372)">2025-11</text>
<text x="570.0" y="170.6" font-family="Arial" font-size="10">274,610</text>
<rect x="620.0" y="78.2" width="35.0" height="271.8" fill="#2f6f9f"/>
<text x="620.0" y="372" font-family="Arial" font-size="11" transform="rotate(35 620.0,372)">2025-12</text>
<text x="620.0" y="72.2" font-family="Arial" font-size="10">430,348</text>
</svg>